# xmcd
#
# Track frame offsets: 
#        150
#        13271
#        27083
#        39640
#        53191
#        67225
#        81945
#        96513
#        110989
#        123726
#        137787
#        152344
#        166508
#        180100
#
# Disc length: 2586 seconds
#
# Revision: 0
# Processed by: cddbd v1.5.2PL0 Copyright (c) Steve Scherf et al.
# Submitted via: ExactAudioCopy v0.99pb5
#
DISCID=bc0a180e
DTITLE=สุรพล สมบัติเจริญ - หงส์ปีกหัก
DYEAR=1900
DGENRE=Country
TTITLE0=หงส์ปีกหัก
TTITLE1=แก้วลืมดง
TTITLE2=สาริกาลืมไพร (ผ่องศรี วรนุช)
TTITLE3=เดือนจ๋า
TTITLE4=กลับเถิดทูลหัว
TTITLE5=กลิ่นแก้มหอมชื่นใจ
TTITLE6=ดอกกระถินในกระท่อม
TTITLE7=เป็นโสดทำไม
TTITLE8=น้ำค้างเดือนหก
TTITLE9=น้ำฝนเดือนเจ็ด (ผ่องศรี วรนุช)
TTITLE10=สร้างวิมาน
TTITLE11=มอญซ่อนผ้า (สุรพล-ประชุม)
TTITLE12=รำวงเกียวสาว  (สุรพล-ประชุม)
TTITLE13=รำวงออกพรรษา (ร้องคู่)
EXTD=
EXTT0=
EXTT1=
EXTT2=
EXTT3=
EXTT4=
EXTT5=
EXTT6=
EXTT7=
EXTT8=
EXTT9=
EXTT10=
EXTT11=
EXTT12=
EXTT13=
PLAYORDER=
